<svg xmlns="http://www.w3.org/2000/svg" viewBox="0 0 283.5 253.77"><defs><style>.cls-1{fill:#0f1014;}.cls-2{isolation:isolate;}</style></defs><g id="Layer_2" data-name="Layer 2"><g id="Layer_1-2" data-name="Layer 1"><path class="cls-1" d="M51.5,121.31c43.9,4.4,69.8-19.1,87.8-55.5,18.5,39,47.7,59.4,92.4,53.7-5.7,10.1-11.3,19.9-16.7,29.9-1.8,3.3-3.1,1.1-4.6.1a125.66,125.66,0,0,0-33.6-17.2c-29.5-9.7-58.3-7.4-86.4,5.6a128.42,128.42,0,0,0-21.7,12.2c-2.4,1.7-3.6,1.9-5-1.3C59.9,139.71,55.7,130.71,51.5,121.31Z"/><path class="cls-1" d="M206.1,170a97,97,0,0,0-38.2-17.8c-32.6-6.9-63.2-2.5-91.3,16-1.3.9-3.3,4.3-4.9.9-1.3-2.7-5.7-5.6,0-9.4,38.1-24.7,78-27.1,119.6-10.4,5.6,2.2,10.3,6,15.5,9,2.8,1.7,3.8,3.3,1.8,6.2A52.51,52.51,0,0,0,206.1,170Z"/><path class="cls-1" d="M139.2,57.91c-3.5-6-6.6-11.9-6.8-18.8a17.9,17.9,0,0,1,.2-4c.7-3.8,2.7-6.7,6.7-6.8s5.7,3.2,6.2,6.6C146.8,43.41,144.1,50.71,139.2,57.91Z"/><path class="cls-1" d="M233.8,113.51c-.6-6.1-.3-11.6,1.7-17,1.4-3.6,3.4-6.3,7.7-5.3,3.2.7,5.1,5.2,4,9.1C245.3,107.21,240.5,111,233.8,113.51Z"/><path class="cls-1" d="M48.6,117.11c-5.8-2.9-9.9-6.4-12.6-11.4a8.34,8.34,0,0,1-.4-8.1c2.3-4.6,6.5-4.9,9.7-.8C49.9,102.81,48.7,109.61,48.6,117.11Z"/><path class="cls-1" d="M283.5,142.91c0,1.6,0,3.2-.1,4.8C280.7,69.51,215.1,8.21,136.9,11A141.67,141.67,0,0,0,.1,147.71c0-1.6-.1-3.2-.1-4.8a141.76,141.76,0,0,1,283.5-2.4v2.4Z"/><path class="cls-1" d="M81.2,249.21a.7.7,0,0,1-.5.4,1.8,1.8,0,0,1-.9-.4,2.65,2.65,0,0,1-.5-.6.88.88,0,0,1,.1-.7c.2-.3.4-.9.8-1.8a9.36,9.36,0,0,1,.4-1.6c.2-.5.4-.9.5-1.1a12.43,12.43,0,0,0,.5-1.5c.2-.7.6-1.5.9-2.3s.7-1.7,1-2.4a15.62,15.62,0,0,0,.7-1.7c.4-.9.7-1.8,1.1-2.7s.9-2.1,1.6-3.6a1.48,1.48,0,0,0,.1-.7.46.46,0,0,0-.5-.4.91.91,0,0,1-.3-.7c0-.2.1-.5.3-.5l1.7-.7a10.8,10.8,0,0,1,3.1-.2,8,8,0,0,1,3,.9,7.57,7.57,0,0,1,2.2,1.8,4,4,0,0,1,.7,1.8,5.66,5.66,0,0,1-.3,1.8,4,4,0,0,1-1,1.5,12.88,12.88,0,0,1-1.7,1.6c-.6.5-1.3,1-2,1.5a11.4,11.4,0,0,1-1.9,1,8.65,8.65,0,0,1-1.7.7l-1.8.6a4.87,4.87,0,0,1-1.2.1,3.4,3.4,0,0,1-1-.1l-.6,1.5c-.2.8-.6,1.9-1.1,3.4S81.9,247.41,81.2,249.21Zm12.7.4a1.27,1.27,0,0,1-.6.1,3.7,3.7,0,0,1-1.1-.5,17.91,17.91,0,0,1-2.8-2c-1.1-1-2.2-2.1-3.2-3.2a14.31,14.31,0,0,1-1.1-1.5,11.4,11.4,0,0,1-1-1.9l-.4-1.7.9-.5,1.2,1.1a10.71,10.71,0,0,0,1.3,2.1c.6.7,1,1.3,1.5,1.8s.9,1,1.6,1.6l2.1,1.8a13.73,13.73,0,0,0,2,1.3.44.44,0,0,1,.1.5,1.42,1.42,0,0,1-.2.6,1.38,1.38,0,0,1-.3.4Zm-8.2-12a8.47,8.47,0,0,0,1.7-.4,15.87,15.87,0,0,0,2-.7c.6-.3,1.3-.7,2-1.1a13.3,13.3,0,0,0,1.9-1.4,7,7,0,0,0,1.4-1.6,2.62,2.62,0,0,0,.5-1.7,1.61,1.61,0,0,0-.3-.9,3,3,0,0,0-.8-.8,4.05,4.05,0,0,0-.9-.5,15.52,15.52,0,0,0-2.1-.4,2.88,2.88,0,0,0-1.3.1,1.46,1.46,0,0,0-.6.9l-.3.6c-.2.4-.4.8-.6,1.3s-.5,1.1-.7,1.7l-1.4,2.9a11.43,11.43,0,0,0-.6,1.4C85.5,237.31,85.6,237.61,85.7,237.61Z"/><path class="cls-1" d="M99,246.81a1,1,0,0,1-.7-.2c-.2-.1-.4-.3-.6-.4a2.73,2.73,0,0,1-.9-1.2,2.34,2.34,0,0,1-.2-1.1,1.7,1.7,0,0,0,.1-.7.31.31,0,0,1-.1-.2c.1-.1.1-.1.1-.2s.2-.1.1-.4a2,2,0,0,1,.3-1.1,8,8,0,0,1,.8-1.6l.6-.9c.3-.4.5-.7.8-1.1s.5-.6.8-.9a7.1,7.1,0,0,1,1.4-1,6.94,6.94,0,0,1,1.3-.5c.3-.1.7-.1,1-.2s.4.2.8.5a2.15,2.15,0,0,1,1.5,2.1,5.5,5.5,0,0,1-.2,2.2,12.16,12.16,0,0,1-3,4.8,9.06,9.06,0,0,1-1.6,1.1,3.38,3.38,0,0,1-1.2.6A1.25,1.25,0,0,1,99,246.81Zm3.1-3.4a8.35,8.35,0,0,0,1.2-1.6,7.22,7.22,0,0,0,.9-2c.1-.3.1-.6.2-.9v-1c0-.3-.1-.5-.2-.5a1.41,1.41,0,0,0-.9-.1,2.73,2.73,0,0,0-1.2.6,6.84,6.84,0,0,0-1.7,2.1,24.37,24.37,0,0,0-1.4,2.8,2.29,2.29,0,0,0-.2,1.8c.2.5.6.6,1.2.5a5.85,5.85,0,0,0,2.1-1.7Z"/><path class="cls-1" d="M107.1,253.61a3.22,3.22,0,0,1-1.7.1,4.42,4.42,0,0,1-1.6-.6,1.42,1.42,0,0,1-.8-.9.6.6,0,0,1,.1-.4l.3-.3c.1-.1.3,0,.4.1a3.55,3.55,0,0,0,.9.4,2.57,2.57,0,0,0,1.5.1,2.37,2.37,0,0,0,1.5-.9,15.38,15.38,0,0,0,1.2-1.3c.2-.3.5-.7.9-1.4s.8-1.4,1.3-2.2a15,15,0,0,0,1.1-2.2l.2-.6.3-.6a4.88,4.88,0,0,1,.3-.7c.1-.2.1-.3.2-.5l.3-.6a9.29,9.29,0,0,0,.5-1l.5-1.4.6-1.5a6.57,6.57,0,0,0,.6-1.2,1,1,0,0,1,.5-.6.76.76,0,0,1,.4-.2c.2,0,.3.1.5.2a2.18,2.18,0,0,1,.5.8,2.77,2.77,0,0,1-.1.9,6.11,6.11,0,0,1-.7,1.4,8.43,8.43,0,0,1-.6,1.4,2.18,2.18,0,0,1-.5.8,6.31,6.31,0,0,1-.4.9l-.4.8a21.72,21.72,0,0,1-1,2.1,10.09,10.09,0,0,0-.7,1.5c-.2.5-.4,1-.7,1.6-.5.8-1,1.5-1.4,2.3a9.51,9.51,0,0,1-1.5,2c-.2.2-.5.4-.8.7a6.07,6.07,0,0,1-1,.7C107.8,253.41,107.4,253.51,107.1,253.61Zm4.3-7.6a1.46,1.46,0,0,1-.9-.6,4.13,4.13,0,0,1-.7-1.1,1.08,1.08,0,0,1-.2-.8v-.4c-.1,0-.2-.2-.3-.5a5.07,5.07,0,0,1-.2-1.3c0-.5-.1-1.1-.1-1.6v-1.6a4.87,4.87,0,0,0,.1-1.2v-1a1.7,1.7,0,0,1,.1-.7l.3-.3a.76.76,0,0,1,1.2.5,8.1,8.1,0,0,1,.1,3.1v2.6a7.8,7.8,0,0,0,.4,2.2,2.22,2.22,0,0,0,.8,1.3.52.52,0,0,1,.2.4,1.19,1.19,0,0,1-.5.9c0,.1-.1.1-.3.1Z"/><path class="cls-1" d="M118.6,246.11a1.38,1.38,0,0,0-.3-.4c-.1-.1-.2-.2-.2-.3v-.3c0-.1-.1-.2-.1-.3s-.1-.4,0-.9.4-1.2.6-1.7a20,20,0,0,1,1-2.1,1.79,1.79,0,0,0,.5-.7,1,1,0,0,1,.4-.5c0-.1,0-.2.1-.2s.1-.1.2-.1v-.2a.85.85,0,0,1,.3-.5c.2-.3.5-.5.8-.9a7.64,7.64,0,0,1,.9-.9,5.55,5.55,0,0,1,.8-.6,2.39,2.39,0,0,1,1.4-.5,1.31,1.31,0,0,1,1.2.3l.3.3c.2.1.3.3.5.5l.6.6,1.2,1-.6,1.6a4.16,4.16,0,0,0-.2,2.2,5.78,5.78,0,0,0,.6,1.7,1.58,1.58,0,0,0,.7.7,3.55,3.55,0,0,0,.9.4c.2,0,.3.1.5.2s.2.3.2.5a.75.75,0,0,1-.1.5c-.1.1-.3.2-.4.3a2.88,2.88,0,0,1-2-.5,6.84,6.84,0,0,1-1.7-2.1c-.1-.2-.2-.5-.3-.7a1.85,1.85,0,0,1-.2-.7l-.5.6a1.7,1.7,0,0,1-.6.6,16.65,16.65,0,0,1-3.9,3.1A2.67,2.67,0,0,1,118.6,246.11Zm1.8-1.8a6,6,0,0,0,1.5-.9c.7-.6,1.4-1.3,2.2-2.1a19.58,19.58,0,0,0,1.8-2.1l.7-1.1a3.59,3.59,0,0,0-.7-1l-.6-.3c-.3,0-.7.3-1.2.8a16.32,16.32,0,0,0-1.7,2,26.75,26.75,0,0,0-1.8,2.8,17.78,17.78,0,0,0-.8,1.8c0,.2.2.2.6.1Z"/><path class="cls-1" d="M133.3,247.31a.91.91,0,0,1-1-.3,2,2,0,0,1-.4-1.3,7.49,7.49,0,0,1,.2-2.1,6.89,6.89,0,0,0,.3-.8,1.27,1.27,0,0,0,.1-.6,1.93,1.93,0,0,1,.3-1c.1-.4.3-.8.4-1.3a8.34,8.34,0,0,1,.4-1.2l.3-.7a.22.22,0,0,0,.2-.2.6.6,0,0,0,.1-.4,1.27,1.27,0,0,1,.1-.6.52.52,0,0,1,.2-.4.6.6,0,0,1,.1-.4c0-.1.1-.2.1-.3a.37.37,0,0,1,.1-.3c0-.1.1-.2.1-.3.2-.4.4-.9.6-1.3.3-.6.5-1.3.8-2a19.45,19.45,0,0,0,.8-2.2c.2-.7.5-1.3.6-1.8l.3-.9a.6.6,0,0,1,.1-.4c.1-.1.2-.1.4-.1s.1-.1.2-.1h.2l.5.5a.55.55,0,0,1,.3.5v.7a1.7,1.7,0,0,1-.1.7,3.55,3.55,0,0,1-.4.9c-.2.4-.5,1-.9,1.9l-.6,1.2a4.88,4.88,0,0,0-.3.7.6.6,0,0,1-.1.4c-.1.2-.1.4-.2.6l-.4.8a9.74,9.74,0,0,1-.5,1.1,6.89,6.89,0,0,0-.4,1c-.1.1-.1.3-.2.5v.3c0,.1-.1.2-.1.3s-.1.1-.2.4a8.45,8.45,0,0,1-.5,1.7c-.3,1.2-.6,2.3-.9,3.2a6.72,6.72,0,0,0-.4,2.4v1C133.6,247.11,133.5,247.21,133.3,247.31Z"/><path class="cls-1" d="M147.8,248.31a2.93,2.93,0,0,1-1.3-1.6,3.44,3.44,0,0,1-.4-2,26.93,26.93,0,0,1,.3-4,24.76,24.76,0,0,1,1-3.9l.9-2.4c.3-.8.7-1.6,1-2.3s.6-1.2.9-1.7a14,14,0,0,1,2.1-2.7,20,20,0,0,1,1.6-1.4,7.49,7.49,0,0,1,1.6-.5,4.48,4.48,0,0,1,2.3,0,14.24,14.24,0,0,1,1.6.5,2.07,2.07,0,0,1,1,.6c.2.3.3.5.5.6a1.48,1.48,0,0,1,0,1.3,1.21,1.21,0,0,1-.5.5.48.48,0,0,1-.6-.2,2,2,0,0,0-.9-.9l-1-.5a1.8,1.8,0,0,0-1-.2,6.15,6.15,0,0,0-1.3.1,3.7,3.7,0,0,0-1.1.5,6.47,6.47,0,0,0-.8.9,10.59,10.59,0,0,0-1,1.2,5.67,5.67,0,0,0-.8,1.3c-.6,1-1.1,2-1.6,3a21.9,21.9,0,0,0-1.2,3.3,8.57,8.57,0,0,0-.3,1.3c-.1.6-.3,1.1-.4,1.7s-.2.9-.3,1.4a12.89,12.89,0,0,0-.1,2.8,1.94,1.94,0,0,0,.8,1.6,2.86,2.86,0,0,0,2.4-.1,4.42,4.42,0,0,0,1.6-.6,7.46,7.46,0,0,0,1.7-1.4,11.51,11.51,0,0,0,1.4-1.7c.4-.7.7-1.4,1-2a9.83,9.83,0,0,0,.5-1.6.53.53,0,0,0-.6-.6,12.1,12.1,0,0,0-1.9-.1,3,3,0,0,1-1.3-.2,1.85,1.85,0,0,1-.2-.7,1,1,0,0,1,.4-.7,5,5,0,0,1,1.2-.2,5.44,5.44,0,0,1,1.8,0,4.8,4.8,0,0,1,1.7.5,2,2,0,0,1,.8.8,2.15,2.15,0,0,1,.2,1.1c0,.4-.1.9-.1,1.3a8.65,8.65,0,0,1-.7,1.7,23.92,23.92,0,0,1-1.3,2.1,17.38,17.38,0,0,1-1.3,1.5,11.51,11.51,0,0,1-1.7,1.4,11.91,11.91,0,0,1-1.5.9,11.22,11.22,0,0,1-2.6.8A4.45,4.45,0,0,1,147.8,248.31Z"/><path class="cls-1" d="M161.3,246.11a1.38,1.38,0,0,0-.3-.4c-.1-.1-.2-.2-.2-.3v-.3c0-.1-.1-.2-.1-.3s-.1-.4,0-.9.4-1.2.6-1.7a21.16,21.16,0,0,1,1.1-2.1,1.79,1.79,0,0,0,.5-.7,1,1,0,0,1,.4-.5c0-.1,0-.2.1-.2s.1-.1.2-.1v-.2a.85.85,0,0,1,.3-.5c.2-.3.5-.5.8-.9a7.64,7.64,0,0,1,.9-.9,5.55,5.55,0,0,1,.8-.6,2.39,2.39,0,0,1,1.4-.5,1.31,1.31,0,0,1,1.2.3l.3.3.5.5.6.6,1.2,1.1-.6,1.6a4.16,4.16,0,0,0-.2,2.2,5.78,5.78,0,0,0,.6,1.7,1.58,1.58,0,0,0,.7.7,3.55,3.55,0,0,0,.9.4c.2,0,.3.1.5.2s.2.3.2.5a.75.75,0,0,1-.1.5c-.1.1-.3.2-.4.3a2.88,2.88,0,0,1-2-.5,6.84,6.84,0,0,1-1.7-2.1c-.1-.2-.2-.5-.3-.7a1.85,1.85,0,0,1-.2-.7l-.5.6a1.7,1.7,0,0,1-.6.6,16.65,16.65,0,0,1-3.9,3.1A3.2,3.2,0,0,1,161.3,246.11Zm1.9-1.8a6,6,0,0,0,1.5-.9c.7-.6,1.4-1.3,2.2-2.1a19.58,19.58,0,0,0,1.8-2.1l.7-1.1a3.59,3.59,0,0,0-.7-1l-.6-.3c-.3,0-.7.3-1.2.8a16.32,16.32,0,0,0-1.7,2,26.75,26.75,0,0,0-1.8,2.8,17.78,17.78,0,0,0-.8,1.8c-.1.2.1.2.6.1Z"/><path class="cls-1" d="M175.7,246.21c-.2-.1-.3-.3-.4-.4a1.39,1.39,0,0,1,0-.9,4.53,4.53,0,0,1,.3-1.6,12.44,12.44,0,0,1,.4-1.6,5,5,0,0,1,.4-1.3,10.4,10.4,0,0,1,.8-2,18.94,18.94,0,0,0,.9-2.1,6.38,6.38,0,0,1,.8-1.4,1.42,1.42,0,0,1,.6-.2.71.71,0,0,1,.6.3.84.84,0,0,1,.1,1,22.88,22.88,0,0,1-1,2.3l-.6,1.3c-.1.2-.2.3-.2.5s.1,0,.3-.1a2.7,2.7,0,0,1,.7-.8,10.63,10.63,0,0,1,1.1-.9c.4-.3.8-.6,1.1-.8a2.74,2.74,0,0,1,.7-.4l.6-.3c.2,0,.3-.1.5-.2a4,4,0,0,1,1.5-.3,1.1,1.1,0,0,1,1,.6.66.66,0,0,0,.4.5c.1,0,.1.1.2.2s-.1.2-.3.3a2.22,2.22,0,0,1-.9.1,1.85,1.85,0,0,0-.7.2,6.89,6.89,0,0,1-.8.3c-.8.5-1.6.9-2.3,1.4a9.09,9.09,0,0,0-2.1,1.8,2.09,2.09,0,0,0-.4.6l-.5.8a1.08,1.08,0,0,0-.3.7c-.1.4-.2.7-.3,1a1.27,1.27,0,0,0-.1.6,3.55,3.55,0,0,1-.4.9c-.3.3-.5.5-.6.5A2.65,2.65,0,0,1,175.7,246.21Z"/><path class="cls-1" d="M195,247.91a.88.88,0,0,1-.7-.1c-.2-.1-.3-.4-.4-.6a9.36,9.36,0,0,1-.4-1.6,4.29,4.29,0,0,1,0-1.6l.1-.7-1.3,1a7.71,7.71,0,0,1-2.1,1.4,5.84,5.84,0,0,1-1.8.4,1.08,1.08,0,0,1-.7-.3,1.47,1.47,0,0,1-.6-.5,2.09,2.09,0,0,1-.4-.6,2.46,2.46,0,0,1-.1-1.2,10.46,10.46,0,0,1,.4-1.7,14.17,14.17,0,0,1,.8-1.8,9.06,9.06,0,0,1,1.1-1.6,4.52,4.52,0,0,1,2.3-2,2.92,2.92,0,0,1,2.4.4,1.69,1.69,0,0,0,1,.3c.1,0,.3-.3.4-.7s.2-.7.3-1,.2-.8.4-1.4a36.32,36.32,0,0,1,1.4-3.8c.4-.9.8-1.7,1.1-2.4a1.8,1.8,0,0,1,.6-.9.44.44,0,0,1,.5-.1.71.71,0,0,1,.6.3,1,1,0,0,1,.4.7.9.9,0,0,1,.1.5,1.42,1.42,0,0,1-.2.6c-.3.5-.6,1.2-1,2s-.7,1.8-1.1,2.8-.7,2-1,3-.6,1.8-.8,2.6a5.66,5.66,0,0,0-.3,1.8,16.35,16.35,0,0,0-.2,2.2c0,.7-.1,1.4-.1,2a3.75,3.75,0,0,0,.1,1.1,3.55,3.55,0,0,1,.2,1,.52.52,0,0,1-.2.4A5.38,5.38,0,0,0,195,247.91Zm-5.4-3.6a3.55,3.55,0,0,0,.9-.4l.9-.6c.6-.5,1.2-.9,1.7-1.3a3.38,3.38,0,0,0,.9-1.9,1.73,1.73,0,0,0-.1-1,1.34,1.34,0,0,0-.6-.7,1.8,1.8,0,0,0-1-.2,2.67,2.67,0,0,0-1.4.7,9,9,0,0,0-1.5,1.9,10.21,10.21,0,0,0-1.1,2.9c0,.2,0,.4.2.5A.91.91,0,0,0,189.6,244.31Z"/><path class="cls-1" d="M204.8,246.21a2.93,2.93,0,0,1-1.6.7,3.42,3.42,0,0,1-3.1-1.4,3.29,3.29,0,0,1-.7-1.6,9.64,9.64,0,0,1,0-2.4,5.66,5.66,0,0,1,.8-2.5,12.42,12.42,0,0,1,1.7-2.3,5.58,5.58,0,0,1,2-1.4,1.14,1.14,0,0,1,.8-.3l1,.1a2.28,2.28,0,0,1,1.1.3,2.65,2.65,0,0,1,.6.5,2.07,2.07,0,0,1,.6,1,2.92,2.92,0,0,1,.2.9,5.56,5.56,0,0,1-.9,1.7,5.37,5.37,0,0,1-2.1,1.6,3.89,3.89,0,0,1-1.5.2,2.3,2.3,0,0,1-1.4-.4c-.4-.2-.7-.1-.8.1a9.36,9.36,0,0,0-.4,1.6,2.82,2.82,0,0,0,.2,1.8,1.15,1.15,0,0,0,.9.6,8.66,8.66,0,0,1,1,.2,1.61,1.61,0,0,0,.9-.3c.2-.1.4-.3.6-.4a.35.35,0,0,0,.2-.1l.4-.4.4-.3a.37.37,0,0,1,.3-.1c.1,0,.2.1.3.1s.2.2.3.2.3.1.1.4a5.5,5.5,0,0,1-.7.9A10.59,10.59,0,0,1,204.8,246.21Zm0-6.8a1.79,1.79,0,0,0,.7-.5c.2-.2.5-.4.6-.7a.86.86,0,0,0,.3-.6,1.23,1.23,0,0,0-.4-.8,1.9,1.9,0,0,0-1.3-.1,2.18,2.18,0,0,0-.8.5c-.3.3-.6.5-.9.8s-.4.5-.6.8a.62.62,0,0,0-.2.4c.2.1.3.2.5.2h1a2,2,0,0,0,1.1,0Z"/><path class="cls-1" d="M220.9,245.81a2.28,2.28,0,0,1-1.1-.3,1.6,1.6,0,0,1-.7-.9,3.55,3.55,0,0,1-.2-1,3.4,3.4,0,0,1-.1-1,1.7,1.7,0,0,1,.1-.7.75.75,0,0,0,.1-.5v-.7c0-.4-.1-.7-.3-.7a1.08,1.08,0,0,0-.8.2l-1.5,1a21.41,21.41,0,0,0-1.9,1.3c-.7.5-1.3,1-1.9,1.5a6.23,6.23,0,0,0-.9,1.2c-.1.3-.2.4-.4.4a.3.3,0,0,1-.4,0,1.76,1.76,0,0,1-.5-.4l-.4-.5a1.38,1.38,0,0,1-.3-.4,1.7,1.7,0,0,1,.1-.7c.1-.3.1-.7.2-1a4.08,4.08,0,0,0,.2-.7c0-.1.2-.1.3-.3a1.61,1.61,0,0,1,.4-.7c.1-.3.2-.7.3-1a6.12,6.12,0,0,0,.5-1.2c.2-.4.4-.8.6-1.3a5.07,5.07,0,0,0,.2-1.3c0-.1,0-.2.1-.2s.1-.3.2-.3h0a.47.47,0,0,1,.6-.1,1,1,0,0,1,.6.5,2.2,2.2,0,0,1,.5,1.6,6.71,6.71,0,0,1-1,2.3l-.3.8a.6.6,0,0,0-.1.4l1.1-.8c.3-.2.5-.4.7-.5s.5-.4.7-.6a8.34,8.34,0,0,1,1.2-.8,3.13,3.13,0,0,1,1-.5,1.69,1.69,0,0,1,.5-.2.6.6,0,0,1,.4-.1.71.71,0,0,1,.6.3c.3.2.5.4.8.6a2.09,2.09,0,0,1,.4.6v.3a.37.37,0,0,0,.1.3,4.1,4.1,0,0,1,.1,1.1v1.3a1,1,0,0,1-.2.7c-.1.1.1.2.2.2v.2c-.1,0-.1.1-.1.3a1.42,1.42,0,0,0,.2.6,1,1,0,0,0,.4.5.91.91,0,0,1,.3.7C221.4,245.61,221.2,245.71,220.9,245.81Z"/><path class="cls-1" d="M31.5,179.31H36v34H31.1v-26.5L20.7,200h-.9L9.2,186.91v26.4H4.4v-34H9l11.3,14Z"/><path class="cls-1" d="M43.4,179.31h4.9v34H43.4Z"/><path class="cls-1" d="M55.8,179.31h4.9v29.5H75.9v4.4H55.8Z"/><path class="cls-1" d="M80.2,179.31H99.5v4.3H85.1V194H99v4.4H85.1V209H99.9v4.3H80.2Z"/><path class="cls-1" d="M132.1,179.31h4.6v34h-4.2l-22.7-26.2v26.1h-4.6v-34h3.9l22.9,26.4.1-26.3Z"/><g class="cls-2"><path class="cls-1" d="M163.2,179.31h6.1l-14.7,16.1,18.4,17.8h-6.6l-17.5-16.7v16.8H144v-34h4.9v15.5Z"/></g><g class="cls-2"><path class="cls-1" d="M231.1,179.31h4.8l-14.4,34.1h-1.1l-14.5-34.1h4.9l10.2,23.8Z"/><path class="cls-1" d="M239.7,179.31h4.9v34h-4.9Z"/><path class="cls-1" d="M281.4,205.41v5.3a26,26,0,0,1-12.3,2.9,19.6,19.6,0,0,1-9.7-2.3,16.57,16.57,0,0,1-6.3-6.3,17.68,17.68,0,0,1-2.3-8.7,16.85,16.85,0,0,1,5.3-12.5,18,18,0,0,1,13-5.1,30,30,0,0,1,11.9,2.8v5.2a23.27,23.27,0,0,0-11.6-3.4,13.35,13.35,0,0,0-9.7,3.7,12.16,12.16,0,0,0-3.9,9.2,12.29,12.29,0,0,0,3.8,9.2,13.54,13.54,0,0,0,9.7,3.6A20.36,20.36,0,0,0,281.4,205.41Zm-7.4-35.9-5.5,7.3h-2.7l3.3-7.3Z"/></g><path class="cls-1" d="M201.2,190.21a7.72,7.72,0,0,0-5.4.3l-.5.2c.6-.8,1.1-1.5,1.6-2.2a13.53,13.53,0,0,0,1.7-3.4,5,5,0,0,0,.1-2.7,3.85,3.85,0,0,0-2.2-2.3,8.45,8.45,0,0,0-1.7-.5h-1a5,5,0,0,0-1.3.4,6.67,6.67,0,0,0-3.8,4.4,10.92,10.92,0,0,0-.4,4v.4l-.2-.4a16.83,16.83,0,0,0-3.3-4.6,6,6,0,0,0-2.1-1.4,3.69,3.69,0,0,0-4.1.9,5.37,5.37,0,0,0-1.1,6,7.29,7.29,0,0,0,3.8,4.1l.7.4a12,12,0,0,0-2,.3,7.33,7.33,0,0,0-4.4,2.7,5.61,5.61,0,0,0,.3,7.3,3.52,3.52,0,0,0,3.1.9,10.26,10.26,0,0,0,3.8-1.8,3.59,3.59,0,0,1,1-.7.76.76,0,0,1-.2.4A20.5,20.5,0,0,0,182,207a7.81,7.81,0,0,0-.1,3.4,3.62,3.62,0,0,0,2.1,2.4,13.32,13.32,0,0,0,1.9.5h.7a4.42,4.42,0,0,0,1.6-.6,6.77,6.77,0,0,0,1.8-2.6,16.29,16.29,0,0,0,.8-4.3v-.2l.1-.1c.1.2.1.3.2.5a12,12,0,0,0,2.2,4,3.6,3.6,0,0,0,2.3,1.3,3.13,3.13,0,0,0,1.9-.4,5.89,5.89,0,0,0,2.4-2.3,4.27,4.27,0,0,0,.3-3.8,11,11,0,0,0-2.7-3.8l-1.1-1c.6.1,1.1.2,1.6.3a8.57,8.57,0,0,0,4.5-.3,4.2,4.2,0,0,0,2.6-3.3A6.11,6.11,0,0,0,201.2,190.21Zm-9.9-7.9a2.07,2.07,0,0,1,1-.6,3.42,3.42,0,0,1,4.4,1.8,3.38,3.38,0,0,1,.2,2,6.66,6.66,0,0,1-1.5,3.3,48.86,48.86,0,0,1-4.5,4.6l-.2-.2a16.29,16.29,0,0,0,1.1-1.7,3.94,3.94,0,0,0,.6-2.1c0-.1-.1-.3-.1-.4-.2-.1-.3.1-.3.3-.3.7-.5,1.4-.8,2.1a1.56,1.56,0,0,1-.6.8v-.8l.3-2.1v-.2c0-.1-.1-.2-.1-.3s-.2.1-.3.1a3.74,3.74,0,0,0-.5,1.8,8.81,8.81,0,0,0,.2,1.7c0,.2,0,.4-.3.4-.1-.4-.1-.8-.2-1.1a32.7,32.7,0,0,1-.4-4.4A7.38,7.38,0,0,1,191.3,182.31Zm-10.6,9.5a4.36,4.36,0,0,1-1.8-3.5,3.25,3.25,0,0,1,1.1-2.8,3,3,0,0,1,2.4-.8c.5,0,.9.1,1.4.1a.91.91,0,0,1,.7.3,13.89,13.89,0,0,1,4.1,7.6l-.7.2-.3-.6a5.11,5.11,0,0,0-1.5-2.1c-.2-.1-.3-.3-.5-.1s0,.4.1.5l1.5,2.4c.1.1,0,.2,0,.3s-.2,0-.3-.1c-.7-.5-1.3-1.1-2-1.6l-.3-.3a.6.6,0,0,0-.4-.1l-.1.1a.3.3,0,0,0,0,.4,5.1,5.1,0,0,0,2.2,1.9l.3.1.1.1-.3.5-2.4-.8a10.4,10.4,0,0,1-3.3-1.7Zm.4,10.9h-.4c-.3,0-.6-.1-.9-.1a3.13,3.13,0,0,1-1.9-.4,3.23,3.23,0,0,1-1.4-3.6,5.56,5.56,0,0,1,.9-1.7,4.31,4.31,0,0,1,2.6-1.5,12.35,12.35,0,0,1,4.7-.1c-.3.3-.6.5-.9.8-.1.2-.2.3-.3.5s-.1.2,0,.4a.19.19,0,0,0,.3,0c.2-.1.4-.3.6-.4a3.18,3.18,0,0,1,2-.8.74.74,0,0,1-.1.9c-.4.3-.8.7-1.2,1-.2.1-.5.3-.7.4s-.1.3-.2.5c.1.1.3.2.4.1a2.94,2.94,0,0,0,1.8-1.3l.4-.5.3.3-1.8,2.1a22.36,22.36,0,0,1-4.2,3.4Zm8.1,5c-.2.7-.5,1.4-.7,2.1a.22.22,0,0,1-.2.2,4,4,0,0,1-2.6.6,3.22,3.22,0,0,1-2.6-2.4,4.61,4.61,0,0,1,.1-2.6,26.85,26.85,0,0,1,3.8-6.8l.1-.1h.1c-.1.6-.2,1.1-.3,1.7,0,.1.1.2.1.4.1-.1.2-.2.2-.3a24.13,24.13,0,0,0,.8-2.5l.4.1c-.1.9-.3,1.9-.4,2.8v.2c0,.1.1.2.1.3.1-.1.2-.1.2-.2a13.32,13.32,0,0,0,.5-1.9c0-.1.1-.2.1-.3a29.57,29.57,0,0,1,.5,5.2,8.47,8.47,0,0,1-.2,3.5Zm-.3-10.6a1.8,1.8,0,1,1,1.7-1.9v.1a1.71,1.71,0,0,1-1.7,1.8Zm8,4.8c.4.5.8,1,1.2,1.6,0,.1.1.2.1.3v.6a2.76,2.76,0,0,1-1.5,3.6,6.37,6.37,0,0,1-.7.2,5.18,5.18,0,0,1-3-.5,1.38,1.38,0,0,1-.3-.4,12.77,12.77,0,0,1-1.8-4.7c-.2-.8-.3-1.7-.5-2.5h.1a3,3,0,0,0,.5.7.37.37,0,0,0,.3.1c0-.1.1-.3.1-.4a15.39,15.39,0,0,0-.8-1.9,3.55,3.55,0,0,1-.2-1h.1c.1.2.2.3.3.5l1.5,2.1.1.1h.4c.2,0,0-.3,0-.4-.4-.6-.9-1.2-1.3-1.8a5.5,5.5,0,0,0-.7-.9c.1,0,.3-.1.3,0a56.4,56.4,0,0,1,5.8,4.7Zm4.9-4.7a6.89,6.89,0,0,1-1.3,1.1.78.78,0,0,0-.4.4.37.37,0,0,1-.3.1,10.17,10.17,0,0,1-7-1.6c-.4-.3-.8-.6-1.1-.8-.1-.1-.2-.2-.2-.3a18,18,0,0,0,1.9.5,4.53,4.53,0,0,0,2.3-.2.32.32,0,0,0,.3-.3c0-.2-.2-.2-.4-.2a17.7,17.7,0,0,1-2.3.1,9.36,9.36,0,0,1-1.6-.4,5.45,5.45,0,0,1,2.2-.5h.4c.2,0,.4-.1.4-.3v-.1c0-.2-.1-.4-.3-.4h-.1c-.7.1-1.5.3-2.2.4-.2.1-.4.1-.6.2a.76.76,0,0,0,.1-.4c1.2-.8,2.3-1.6,3.6-2.3a7,7,0,0,1,4-1,4.14,4.14,0,0,1,1.9.5,4.21,4.21,0,0,1,1.6,2.5,3.33,3.33,0,0,1-.9,3Z"/></g></g></svg>