<?xml version="1.0" encoding="utf-8"?>
<!-- Generator: Adobe Illustrator 24.1.2, SVG Export Plug-In . SVG Version: 6.00 Build 0)  -->
<svg version="1.1" id="Layer_1" xmlns="http://www.w3.org/2000/svg" xmlns:xlink="http://www.w3.org/1999/xlink" x="0px" y="0px"
	 viewBox="0 0 283.7 253.8" style="enable-background:new 0 0 283.7 253.8;" xml:space="preserve">
<style type="text/css">
	.st0{fill:#FFE9A0;}
	.st1{enable-background:new    ;}
</style>
<g>
	<path class="st0" d="M51.6,121.3c43.9,4.4,69.8-19.1,87.8-55.5c18.5,39,47.7,59.4,92.4,53.7c-5.7,10.1-11.3,19.9-16.7,29.9
		c-1.8,3.3-3.1,1.1-4.6,0.1c-10.3-7.4-21.6-13.2-33.6-17.2c-29.5-9.7-58.3-7.4-86.4,5.6c-7.6,3.4-14.9,7.4-21.7,12.2
		c-2.4,1.7-3.6,1.9-5-1.3C60,139.7,55.8,130.7,51.6,121.3z"/>
	<path class="st0" d="M206.2,170c-11.3-8.7-24.3-14.7-38.2-17.8c-32.6-6.9-63.2-2.5-91.3,16c-1.3,0.9-3.3,4.3-4.9,0.9
		c-1.3-2.7-5.7-5.6,0-9.4c38.1-24.7,78-27.1,119.6-10.4c5.6,2.2,10.3,6,15.5,9c2.8,1.7,3.8,3.3,1.8,6.2
		C207.7,166.4,206.9,168.2,206.2,170z"/>
	<path class="st0" d="M139.3,57.9c-3.5-6-6.6-11.9-6.8-18.8c-0.1-1.3,0-2.7,0.2-4c0.7-3.8,2.7-6.7,6.7-6.8s5.7,3.2,6.2,6.6
		C146.9,43.4,144.2,50.7,139.3,57.9z"/>
	<path class="st0" d="M233.9,113.5c-0.6-6.1-0.3-11.6,1.7-17c1.4-3.6,3.4-6.3,7.7-5.3c3.2,0.7,5.1,5.2,4,9.1
		C245.4,107.2,240.6,111,233.9,113.5z"/>
	<path class="st0" d="M48.7,117.1c-5.8-2.9-9.9-6.4-12.6-11.4c-1.5-2.4-1.7-5.5-0.4-8.1c2.3-4.6,6.5-4.9,9.7-0.8
		C50,102.8,48.8,109.6,48.7,117.1z"/>
	<path class="st0" d="M283.6,142.9c0,1.6,0,3.2-0.1,4.8C280.8,69.5,215.2,8.2,137,11C62.5,13.5,2.8,73.3,0.2,147.7
		c0-1.6-0.1-3.2-0.1-4.8C-0.5,64.6,62.4,0.7,140.7,0S283,62.3,283.6,140.5L283.6,142.9L283.6,142.9z"/>
	<path class="st0" d="M81.3,249.2c-0.1,0.2-0.2,0.3-0.5,0.4c-0.3,0-0.6-0.2-0.9-0.4c-0.2-0.2-0.4-0.4-0.5-0.6
		c-0.1-0.2,0-0.5,0.1-0.7c0.2-0.3,0.4-0.9,0.8-1.8c0.1-0.5,0.2-1.1,0.4-1.6c0.2-0.5,0.4-0.9,0.5-1.1s0.3-0.8,0.5-1.5
		s0.6-1.5,0.9-2.3s0.7-1.7,1-2.4s0.6-1.3,0.7-1.7c0.4-0.9,0.7-1.8,1.1-2.7s0.9-2.1,1.6-3.6c0.1-0.2,0.1-0.4,0.1-0.7
		c0-0.2-0.2-0.4-0.5-0.4c-0.2-0.2-0.3-0.4-0.3-0.7c0-0.2,0.1-0.5,0.3-0.5l1.7-0.7c1-0.2,2.1-0.3,3.1-0.2s2.1,0.4,3,0.9
		c0.8,0.4,1.6,1.1,2.2,1.8c0.4,0.5,0.6,1.2,0.7,1.8c0,0.6-0.1,1.2-0.3,1.8c-0.2,0.6-0.6,1.1-1,1.5c-0.5,0.6-1.1,1.1-1.7,1.6
		s-1.3,1-2,1.5c-0.6,0.4-1.2,0.7-1.9,1c-0.5,0.3-1.1,0.5-1.7,0.7l-1.8,0.6c-0.4,0.1-0.8,0.1-1.2,0.1c-0.3,0-0.7,0-1-0.1l-0.6,1.5
		c-0.2,0.8-0.6,1.9-1.1,3.4S82,247.4,81.3,249.2z M94,249.6c-0.2,0.1-0.4,0.1-0.6,0.1c-0.4-0.1-0.8-0.3-1.1-0.5
		c-1-0.6-1.9-1.2-2.8-2c-1.1-1-2.2-2.1-3.2-3.2c-0.4-0.5-0.8-1-1.1-1.5c-0.4-0.6-0.7-1.2-1-1.9l-0.4-1.7l0.9-0.5l1.2,1.1
		c0.4,0.8,0.8,1.5,1.3,2.1c0.6,0.7,1,1.3,1.5,1.8s0.9,1,1.6,1.6s1.4,1.2,2.1,1.8c0.6,0.5,1.3,0.9,2,1.3c0.1,0.1,0.2,0.3,0.1,0.5
		c0,0.2-0.1,0.4-0.2,0.6C94.2,249.4,94.1,249.5,94,249.6L94,249.6z M85.8,237.6c0.6-0.1,1.2-0.2,1.7-0.4c0.7-0.2,1.3-0.4,2-0.7
		c0.6-0.3,1.3-0.7,2-1.1c0.7-0.4,1.3-0.9,1.9-1.4s1-1,1.4-1.6c0.4-0.5,0.5-1.1,0.5-1.7c0-0.3-0.1-0.6-0.3-0.9
		c-0.2-0.3-0.5-0.6-0.8-0.8s-0.6-0.4-0.9-0.5c-0.7-0.2-1.4-0.3-2.1-0.4c-0.4-0.1-0.9,0-1.3,0.1c-0.3,0.2-0.5,0.5-0.6,0.9
		c-0.1,0.2-0.2,0.4-0.3,0.6c-0.2,0.4-0.4,0.8-0.6,1.3s-0.5,1.1-0.7,1.7l-1.4,2.9c-0.3,0.6-0.5,1.1-0.6,1.4S85.7,237.6,85.8,237.6z"
		/>
	<path class="st0" d="M99.1,246.8c-0.2,0-0.5,0-0.7-0.2c-0.2-0.1-0.4-0.3-0.6-0.4c-0.4-0.3-0.7-0.7-0.9-1.2
		c-0.2-0.4-0.2-0.8-0.2-1.1c0.1-0.2,0.1-0.5,0.1-0.7c-0.1-0.1-0.1-0.2-0.1-0.2c0.1-0.1,0.1-0.1,0.1-0.2c0.1,0,0.2-0.1,0.1-0.4
		c0-0.4,0.1-0.8,0.3-1.1c0.2-0.6,0.5-1.1,0.8-1.6c0.2-0.3,0.4-0.6,0.6-0.9c0.3-0.4,0.5-0.7,0.8-1.1c0.3-0.3,0.5-0.6,0.8-0.9
		c0.4-0.4,0.9-0.7,1.4-1c0.4-0.2,0.9-0.4,1.3-0.5c0.3-0.1,0.7-0.1,1-0.2c0.2,0,0.4,0.2,0.8,0.5c0.4,0.2,0.8,0.4,1.1,0.8
		c0.2,0.4,0.4,0.8,0.4,1.3c0.1,0.7,0,1.5-0.2,2.2c-0.6,1.8-1.6,3.4-3,4.8c-0.5,0.4-1,0.8-1.6,1.1c-0.4,0.3-0.8,0.5-1.2,0.6
		C100,246.7,99.6,246.8,99.1,246.8z M102.2,243.4c0.5-0.5,0.9-1.1,1.2-1.6c0.4-0.6,0.7-1.3,0.9-2c0.1-0.3,0.1-0.6,0.2-0.9
		c0-0.3,0-0.7,0-1s-0.1-0.5-0.2-0.5c-0.3-0.1-0.6-0.2-0.9-0.1c-0.4,0.1-0.9,0.3-1.2,0.6c-0.7,0.6-1.3,1.3-1.7,2.1
		c-0.5,0.9-1,1.8-1.4,2.8c-0.3,0.6-0.4,1.2-0.2,1.8c0.2,0.5,0.6,0.6,1.2,0.5C100.9,244.7,101.7,244.1,102.2,243.4L102.2,243.4z"/>
	<path class="st0" d="M107.2,253.6c-0.5,0.2-1.1,0.2-1.7,0.1c-0.6-0.1-1.1-0.3-1.6-0.6c-0.4-0.2-0.7-0.5-0.8-0.9
		c0-0.1,0-0.3,0.1-0.4c0.1-0.1,0.2-0.2,0.3-0.3c0.1-0.1,0.3,0,0.4,0.1c0.3,0.2,0.6,0.3,0.9,0.4c0.5,0.2,1,0.2,1.5,0.1
		c0.6-0.1,1.1-0.4,1.5-0.9c0.4-0.4,0.8-0.8,1.2-1.3c0.2-0.3,0.5-0.7,0.9-1.4s0.8-1.4,1.3-2.2s0.8-1.5,1.1-2.2l0.2-0.6
		c0.1-0.2,0.2-0.4,0.3-0.6c0.1-0.3,0.2-0.5,0.3-0.7s0.1-0.3,0.2-0.5s0.2-0.4,0.3-0.6c0.2-0.3,0.3-0.6,0.5-1l0.5-1.4
		c0.2-0.5,0.4-1,0.6-1.5c0.3-0.5,0.5-0.9,0.6-1.2s0.3-0.5,0.5-0.6c0.1-0.1,0.3-0.2,0.4-0.2c0.2,0,0.3,0.1,0.5,0.2
		c0.2,0.2,0.4,0.5,0.5,0.8c0,0.3,0,0.6-0.1,0.9c-0.2,0.5-0.4,1-0.7,1.4c-0.2,0.5-0.3,0.9-0.6,1.4c-0.1,0.3-0.3,0.6-0.5,0.8
		c-0.1,0.3-0.2,0.5-0.4,0.9l-0.4,0.8c-0.4,0.9-0.7,1.6-1,2.1s-0.5,1-0.7,1.5s-0.4,1-0.7,1.6c-0.5,0.8-1,1.5-1.4,2.3
		c-0.4,0.7-0.9,1.4-1.5,2c-0.2,0.2-0.5,0.4-0.8,0.7s-0.7,0.5-1,0.7C107.9,253.4,107.5,253.5,107.2,253.6z M111.5,246
		c-0.4-0.1-0.7-0.3-0.9-0.6c-0.3-0.3-0.5-0.7-0.7-1.1c-0.2-0.2-0.2-0.5-0.2-0.8v-0.4c-0.1,0-0.2-0.2-0.3-0.5
		c-0.1-0.4-0.2-0.8-0.2-1.3s-0.1-1.1-0.1-1.6s0-1.1,0-1.6c0.1-0.4,0.1-0.8,0.1-1.2v-1c0-0.2,0-0.5,0.1-0.7c0.1-0.1,0.2-0.2,0.3-0.3
		c0.6-0.3,1-0.1,1.2,0.5c0.2,1,0.3,2.1,0.1,3.1v2.6c0,0.8,0.2,1.5,0.4,2.2c0.1,0.5,0.4,1,0.8,1.3c0.1,0.1,0.2,0.2,0.2,0.4
		c0,0.3-0.2,0.7-0.5,0.9C111.8,246,111.7,246,111.5,246L111.5,246z"/>
	<path class="st0" d="M118.7,246.1c-0.1-0.2-0.2-0.3-0.3-0.4c-0.1-0.1-0.2-0.2-0.2-0.3v-0.3c0-0.1-0.1-0.2-0.1-0.3
		c-0.1-0.1-0.1-0.4,0-0.9c0.2-0.6,0.4-1.2,0.6-1.7c0.3-0.7,0.6-1.4,1-2.1c0.2-0.2,0.4-0.4,0.5-0.7c0.1-0.2,0.2-0.4,0.4-0.5
		c0-0.1,0-0.2,0.1-0.2c0-0.1,0.1-0.1,0.2-0.1v-0.2c0-0.2,0.2-0.4,0.3-0.5c0.2-0.3,0.5-0.5,0.8-0.9s0.6-0.6,0.9-0.9
		c0.2-0.2,0.5-0.4,0.8-0.6c0.4-0.3,0.9-0.5,1.4-0.5c0.4-0.1,0.9,0,1.2,0.3l0.3,0.3c0.2,0.1,0.3,0.3,0.5,0.5l0.6,0.6l1.2,1l-0.6,1.6
		c-0.3,0.7-0.3,1.5-0.2,2.2c0.1,0.6,0.3,1.1,0.6,1.7c0.1,0.3,0.4,0.5,0.7,0.7s0.6,0.3,0.9,0.4c0.2,0,0.3,0.1,0.5,0.2
		c0.2,0.1,0.2,0.3,0.2,0.5s0,0.4-0.1,0.5s-0.3,0.2-0.4,0.3c-0.7,0.1-1.4-0.1-2-0.5c-0.7-0.6-1.3-1.3-1.7-2.1
		c-0.1-0.2-0.2-0.5-0.3-0.7c-0.1-0.2-0.2-0.5-0.2-0.7l-0.5,0.6c-0.2,0.3-0.4,0.5-0.6,0.6c-1.1,1.2-2.5,2.3-3.9,3.1
		C120.6,246.5,119.6,246.6,118.7,246.1z M120.5,244.3c0.5-0.2,1-0.5,1.5-0.9c0.7-0.6,1.4-1.3,2.2-2.1c0.6-0.6,1.2-1.3,1.8-2.1
		l0.7-1.1c-0.2-0.4-0.4-0.7-0.7-1c-0.2-0.1-0.4-0.2-0.6-0.3c-0.3,0-0.7,0.3-1.2,0.8c-0.6,0.6-1.2,1.3-1.7,2
		c-0.7,0.9-1.2,1.8-1.8,2.8c-0.2,0.4-0.5,1-0.8,1.8C119.9,244.4,120.1,244.4,120.5,244.3L120.5,244.3z"/>
	<path class="st0" d="M133.4,247.3c-0.4,0.1-0.8,0-1-0.3c-0.3-0.4-0.4-0.8-0.4-1.3c0-0.7,0-1.4,0.2-2.1c0.1-0.2,0.2-0.5,0.3-0.8
		c0.1-0.2,0.1-0.4,0.1-0.6c0-0.3,0.1-0.7,0.3-1c0.1-0.4,0.3-0.8,0.4-1.3s0.3-0.9,0.4-1.2l0.3-0.7c0.1,0,0.2-0.1,0.2-0.2
		c0.1-0.1,0.1-0.3,0.1-0.4c0-0.2,0-0.4,0.1-0.6c0-0.2,0.1-0.3,0.2-0.4c0-0.1,0-0.3,0.1-0.4c0-0.1,0.1-0.2,0.1-0.3s0-0.2,0.1-0.3
		c0-0.1,0.1-0.2,0.1-0.3c0.2-0.4,0.4-0.9,0.6-1.3c0.3-0.6,0.5-1.3,0.8-2s0.6-1.5,0.8-2.2s0.5-1.3,0.6-1.8c0.1-0.3,0.2-0.6,0.3-0.9
		c0-0.1,0-0.3,0.1-0.4c0.1-0.1,0.2-0.1,0.4-0.1c0.1-0.1,0.1-0.1,0.2-0.1h0.2l0.5,0.5c0.2,0.1,0.3,0.3,0.3,0.5s0,0.4,0,0.7
		c0,0.2,0,0.5-0.1,0.7c-0.1,0.3-0.2,0.6-0.4,0.9c-0.2,0.4-0.5,1-0.9,1.9c-0.2,0.4-0.4,0.8-0.6,1.2c-0.1,0.2-0.2,0.4-0.3,0.7
		c0,0.1,0,0.3-0.1,0.4c-0.1,0.2-0.1,0.4-0.2,0.6l-0.4,0.8c-0.1,0.3-0.3,0.7-0.5,1.1s-0.3,0.7-0.4,1c-0.1,0.1-0.1,0.3-0.2,0.5v0.3
		c0,0.1-0.1,0.2-0.1,0.3c-0.1,0-0.1,0.1-0.2,0.4c-0.1,0.6-0.3,1.2-0.5,1.7c-0.3,1.2-0.6,2.3-0.9,3.2c-0.3,0.8-0.4,1.6-0.4,2.4v1
		C133.7,247.1,133.6,247.2,133.4,247.3z"/>
	<path class="st0" d="M147.9,248.3c-0.6-0.4-1.1-0.9-1.3-1.6c-0.3-0.6-0.5-1.3-0.4-2c0-1.3,0.1-2.7,0.3-4s0.6-2.7,1-3.9
		c0.3-0.8,0.6-1.6,0.9-2.4s0.7-1.6,1-2.3c0.3-0.6,0.6-1.2,0.9-1.7c0.6-1,1.3-1.9,2.1-2.7c0.5-0.5,1.1-1,1.6-1.4
		c0.5-0.2,1-0.4,1.6-0.5c0.8-0.2,1.5-0.2,2.3,0c0.5,0.1,1,0.3,1.6,0.5c0.4,0.1,0.7,0.3,1,0.6c0.2,0.3,0.3,0.5,0.5,0.6
		c0.2,0.4,0.2,0.9,0,1.3c-0.1,0.2-0.3,0.4-0.5,0.5s-0.5,0-0.6-0.2c-0.2-0.4-0.5-0.7-0.9-0.9l-1-0.5c-0.3-0.2-0.7-0.2-1-0.2
		c-0.4,0-0.8,0-1.3,0.1c-0.4,0.1-0.8,0.3-1.1,0.5c-0.3,0.3-0.6,0.6-0.8,0.9c-0.4,0.4-0.7,0.8-1,1.2s-0.6,0.8-0.8,1.3
		c-0.6,1-1.1,2-1.6,3c-0.5,1.1-0.9,2.2-1.2,3.3c-0.1,0.3-0.2,0.7-0.3,1.3s-0.3,1.1-0.4,1.7c-0.1,0.5-0.2,0.9-0.3,1.4
		c-0.1,0.9-0.2,1.8-0.1,2.8c0,0.6,0.3,1.3,0.8,1.6c0.8,0.3,1.7,0.3,2.4-0.1c0.6-0.1,1.1-0.3,1.6-0.6c0.6-0.4,1.2-0.8,1.7-1.4
		c0.5-0.5,1-1.1,1.4-1.7c0.4-0.7,0.7-1.4,1-2c0.2-0.5,0.4-1.1,0.5-1.6c0-0.4-0.2-0.6-0.6-0.6c-0.6-0.1-1.3-0.1-1.9-0.1
		c-0.4,0-0.9,0-1.3-0.2c-0.1-0.2-0.2-0.5-0.2-0.7c0-0.3,0.2-0.5,0.4-0.7c0.4-0.1,0.8-0.2,1.2-0.2c0.6-0.1,1.2-0.1,1.8,0
		s1.2,0.2,1.7,0.5c0.3,0.2,0.6,0.4,0.8,0.8c0.2,0.4,0.2,0.7,0.2,1.1c0,0.4-0.1,0.9-0.1,1.3c-0.2,0.6-0.4,1.2-0.7,1.7
		c-0.4,0.7-0.8,1.4-1.3,2.1c-0.4,0.5-0.8,1-1.3,1.5s-1.1,1-1.7,1.4c-0.5,0.4-1,0.6-1.5,0.9c-0.8,0.4-1.7,0.6-2.6,0.8
		C149.3,248.8,148.5,248.7,147.9,248.3z"/>
	<path class="st0" d="M161.4,246.1c-0.1-0.2-0.2-0.3-0.3-0.4c-0.1-0.1-0.2-0.2-0.2-0.3v-0.3c0-0.1-0.1-0.2-0.1-0.3
		c-0.1-0.1-0.1-0.4,0-0.9c0.2-0.6,0.4-1.2,0.6-1.7c0.3-0.7,0.7-1.4,1.1-2.1c0.2-0.2,0.4-0.4,0.5-0.7c0.1-0.2,0.2-0.4,0.4-0.5
		c0-0.1,0-0.2,0.1-0.2c0-0.1,0.1-0.1,0.2-0.1v-0.2c0-0.2,0.2-0.4,0.3-0.5c0.2-0.3,0.5-0.5,0.8-0.9s0.6-0.6,0.9-0.9
		c0.2-0.2,0.5-0.4,0.8-0.6c0.4-0.3,0.9-0.5,1.4-0.5c0.4-0.1,0.9,0,1.2,0.3l0.3,0.3c0.1,0.1,0.3,0.3,0.5,0.5l0.6,0.6l1.2,1.1
		l-0.6,1.6c-0.3,0.7-0.3,1.5-0.2,2.2c0.1,0.6,0.3,1.1,0.6,1.7c0.1,0.3,0.4,0.5,0.7,0.7s0.6,0.3,0.9,0.4c0.2,0,0.3,0.1,0.5,0.2
		c0.2,0.1,0.2,0.3,0.2,0.5s0,0.4-0.1,0.5s-0.3,0.2-0.4,0.3c-0.7,0.1-1.4-0.1-2-0.5c-0.7-0.6-1.3-1.3-1.7-2.1
		c-0.1-0.2-0.2-0.5-0.3-0.7s-0.2-0.5-0.2-0.7l-0.5,0.6c-0.2,0.3-0.4,0.5-0.6,0.6c-1.1,1.2-2.5,2.3-3.9,3.1
		C163.3,246.5,162.3,246.6,161.4,246.1z M163.3,244.3c0.5-0.2,1-0.5,1.5-0.9c0.7-0.6,1.4-1.3,2.2-2.1c0.6-0.6,1.2-1.3,1.8-2.1
		l0.7-1.1c-0.2-0.4-0.4-0.7-0.7-1c-0.2-0.1-0.4-0.2-0.6-0.3c-0.3,0-0.7,0.3-1.2,0.8c-0.6,0.6-1.2,1.3-1.7,2
		c-0.7,0.9-1.2,1.8-1.8,2.8c-0.2,0.4-0.5,1-0.8,1.8C162.6,244.4,162.8,244.4,163.3,244.3L163.3,244.3z"/>
	<path class="st0" d="M175.8,246.2c-0.2-0.1-0.3-0.3-0.4-0.4c-0.1-0.3-0.1-0.6,0-0.9c0-0.5,0.1-1.1,0.3-1.6c0.1-0.5,0.2-1,0.4-1.6
		c0.1-0.5,0.2-0.9,0.4-1.3c0.2-0.6,0.4-1.3,0.8-2s0.6-1.4,0.9-2.1c0.2-0.5,0.5-1,0.8-1.4c0.2-0.1,0.4-0.2,0.6-0.2
		c0.2,0,0.5,0.1,0.6,0.3c0.2,0.2,0.3,0.5,0.1,1c-0.3,0.8-0.6,1.5-1,2.3l-0.6,1.3c-0.1,0.2-0.2,0.3-0.2,0.5c0,0.1,0.1,0,0.3-0.1
		c0.2-0.3,0.4-0.6,0.7-0.8c0.3-0.3,0.7-0.6,1.1-0.9s0.8-0.6,1.1-0.8s0.6-0.4,0.7-0.4c0.2-0.1,0.4-0.2,0.6-0.3c0.2,0,0.3-0.1,0.5-0.2
		c0.5-0.2,1-0.3,1.5-0.3c0.4,0,0.8,0.2,1,0.6c0,0.2,0.2,0.4,0.4,0.5c0.1,0,0.1,0.1,0.2,0.2s-0.1,0.2-0.3,0.3s-0.5,0.1-0.9,0.1
		c-0.2,0-0.5,0.1-0.7,0.2c-0.2,0.1-0.5,0.2-0.8,0.3c-0.8,0.5-1.6,0.9-2.3,1.4c-0.8,0.5-1.5,1.1-2.1,1.8c-0.2,0.2-0.3,0.4-0.4,0.6
		l-0.5,0.8c-0.2,0.2-0.3,0.5-0.3,0.7c-0.1,0.4-0.2,0.7-0.3,1c-0.1,0.2-0.1,0.4-0.1,0.6c-0.1,0.3-0.2,0.6-0.4,0.9
		c-0.3,0.3-0.5,0.5-0.6,0.5C176.3,246.6,176,246.4,175.8,246.2z"/>
	<path class="st0" d="M195.1,247.9c-0.2,0.1-0.5,0-0.7-0.1s-0.3-0.4-0.4-0.6c-0.2-0.5-0.3-1.1-0.4-1.6c-0.1-0.5-0.1-1,0-1.6l0.1-0.7
		l-1.3,1c-0.6,0.6-1.3,1-2.1,1.4c-0.6,0.2-1.2,0.4-1.8,0.4c-0.2,0-0.5-0.1-0.7-0.3c-0.2-0.1-0.5-0.3-0.6-0.5
		c-0.2-0.2-0.3-0.4-0.4-0.6c-0.1-0.4-0.2-0.8-0.1-1.2c0.1-0.6,0.2-1.1,0.4-1.7c0.2-0.6,0.5-1.2,0.8-1.8s0.7-1.1,1.1-1.6
		c0.5-0.9,1.3-1.6,2.3-2c0.8-0.2,1.7-0.1,2.4,0.4c0.3,0.2,0.6,0.3,1,0.3c0.1,0,0.3-0.3,0.4-0.7s0.2-0.7,0.3-1s0.2-0.8,0.4-1.4
		c0.5-1.6,1-2.9,1.4-3.8s0.8-1.7,1.1-2.4c0.1-0.3,0.3-0.7,0.6-0.9c0.1-0.1,0.3-0.2,0.5-0.1c0.2,0,0.5,0.1,0.6,0.3
		c0.2,0.2,0.4,0.4,0.4,0.7c0.1,0.2,0.1,0.3,0.1,0.5s-0.1,0.4-0.2,0.6c-0.3,0.5-0.6,1.2-1,2s-0.7,1.8-1.1,2.8s-0.7,2-1,3
		s-0.6,1.8-0.8,2.6c-0.2,0.6-0.3,1.2-0.3,1.8c-0.1,0.7-0.2,1.5-0.2,2.2s-0.1,1.4-0.1,2c0,0.4,0,0.8,0.1,1.1s0.2,0.7,0.2,1
		c0,0.2-0.1,0.3-0.2,0.4C195.4,247.8,195.3,247.9,195.1,247.9z M189.7,244.3c0.3-0.1,0.6-0.2,0.9-0.4c0.3-0.2,0.6-0.4,0.9-0.6
		c0.6-0.5,1.2-0.9,1.7-1.3c0.5-0.5,0.8-1.2,0.9-1.9c0.1-0.3,0-0.7-0.1-1s-0.3-0.5-0.6-0.7s-0.7-0.2-1-0.2c-0.5,0.1-1,0.3-1.4,0.7
		c-0.6,0.6-1.1,1.2-1.5,1.9c-0.5,0.9-0.9,1.9-1.1,2.9c0,0.2,0,0.4,0.2,0.5C189,244.5,189.3,244.5,189.7,244.3z"/>
	<path class="st0" d="M204.9,246.2c-0.4,0.4-1,0.6-1.6,0.7c-1.2,0.1-2.4-0.4-3.1-1.4c-0.4-0.5-0.6-1-0.7-1.6c-0.1-0.8-0.1-1.6,0-2.4
		c0.1-0.9,0.3-1.7,0.8-2.5s1-1.6,1.7-2.3c0.6-0.6,1.2-1.1,2-1.4c0.2-0.2,0.5-0.3,0.8-0.3l1,0.1c0.4,0,0.7,0.1,1.1,0.3
		c0.2,0.1,0.4,0.3,0.6,0.5c0.3,0.3,0.5,0.6,0.6,1c0.1,0.3,0.2,0.6,0.2,0.9c-0.2,0.6-0.5,1.2-0.9,1.7c-0.6,0.7-1.3,1.3-2.1,1.6
		c-0.5,0.2-1,0.2-1.5,0.2s-1-0.1-1.4-0.4c-0.4-0.2-0.7-0.1-0.8,0.1c-0.2,0.5-0.3,1.1-0.4,1.6c-0.1,0.6-0.1,1.2,0.2,1.8
		c0.2,0.3,0.5,0.6,0.9,0.6c0.4,0.1,0.8,0.1,1,0.2c0.3,0,0.6-0.1,0.9-0.3c0.2-0.1,0.4-0.3,0.6-0.4c0.1,0,0.2-0.1,0.2-0.1l0.4-0.4
		l0.4-0.3c0.1-0.1,0.2-0.1,0.3-0.1s0.2,0.1,0.3,0.1c0.1,0.1,0.2,0.2,0.3,0.2c0.2,0,0.3,0.1,0.1,0.4c-0.2,0.3-0.4,0.6-0.7,0.9
		C205.7,245.6,205.3,245.9,204.9,246.2z M204.9,239.4c0.3-0.1,0.5-0.3,0.7-0.5s0.5-0.4,0.6-0.7c0.2-0.2,0.3-0.4,0.3-0.6
		c0-0.3-0.2-0.6-0.4-0.8c-0.4-0.2-0.8-0.2-1.3-0.1c-0.3,0.1-0.6,0.3-0.8,0.5c-0.3,0.3-0.6,0.5-0.9,0.8c-0.2,0.3-0.4,0.5-0.6,0.8
		c-0.2,0.2-0.2,0.4-0.2,0.4c0.2,0.1,0.3,0.2,0.5,0.2c0.3,0,0.7,0,1,0C204.3,239.5,204.6,239.5,204.9,239.4L204.9,239.4z"/>
	<path class="st0" d="M221,245.8c-0.4,0-0.7-0.1-1.1-0.3c-0.3-0.2-0.6-0.5-0.7-0.9c-0.1-0.3-0.2-0.7-0.2-1c-0.1-0.3-0.1-0.7-0.1-1
		c0-0.2,0-0.5,0.1-0.7c0.1-0.1,0.1-0.3,0.1-0.5v-0.7c0-0.4-0.1-0.7-0.3-0.7c-0.3,0-0.6,0-0.8,0.2l-1.5,1c-0.6,0.4-1.3,0.8-1.9,1.3
		c-0.7,0.5-1.3,1-1.9,1.5c-0.3,0.3-0.6,0.7-0.9,1.2c-0.1,0.3-0.2,0.4-0.4,0.4c-0.1,0.1-0.3,0.1-0.4,0c-0.2-0.1-0.3-0.2-0.5-0.4
		l-0.4-0.5c-0.1-0.1-0.2-0.2-0.3-0.4c0-0.2,0-0.5,0.1-0.7c0.1-0.3,0.1-0.7,0.2-1c0.1-0.3,0.2-0.6,0.2-0.7s0.2-0.1,0.3-0.3
		c0.1-0.3,0.2-0.5,0.4-0.7c0.1-0.3,0.2-0.7,0.3-1c0.2-0.4,0.4-0.8,0.5-1.2c0.2-0.4,0.4-0.8,0.6-1.3c0.1-0.4,0.2-0.8,0.2-1.3
		c0-0.1,0-0.2,0.1-0.2c0-0.1,0.1-0.3,0.2-0.3l0,0c0.2-0.2,0.4-0.2,0.6-0.1c0.3,0.1,0.5,0.3,0.6,0.5c0.4,0.4,0.5,1,0.5,1.6
		c-0.2,0.8-0.5,1.6-1,2.3l-0.3,0.8c-0.1,0.1-0.1,0.3-0.1,0.4l1.1-0.8c0.3-0.2,0.5-0.4,0.7-0.5c0.2-0.2,0.5-0.4,0.7-0.6
		c0.4-0.3,0.8-0.6,1.2-0.8c0.3-0.2,0.6-0.4,1-0.5c0.2-0.1,0.4-0.2,0.5-0.2c0.1-0.1,0.3-0.1,0.4-0.1c0.2,0,0.5,0.1,0.6,0.3
		c0.3,0.2,0.5,0.4,0.8,0.6c0.2,0.2,0.3,0.4,0.4,0.6c0,0.1,0,0.2,0,0.3s0,0.2,0.1,0.3c0.1,0.4,0.1,0.7,0.1,1.1c0,0.4,0,0.9,0,1.3
		s-0.1,0.6-0.2,0.7s0.1,0.2,0.2,0.2v0.2c-0.1,0-0.1,0.1-0.1,0.3s0.1,0.4,0.2,0.6c0.1,0.2,0.2,0.4,0.4,0.5c0.2,0.2,0.3,0.4,0.3,0.7
		C221.5,245.6,221.3,245.7,221,245.8z"/>
	<g>
		<g>
			<path class="st0" d="M31.6,179.3h4.5v34h-4.9v-26.5L20.8,200h-0.9L9.3,186.9v26.4H4.5v-34h4.6l11.3,14L31.6,179.3z"/>
			<path class="st0" d="M43.5,179.3h4.9v34h-4.9V179.3z"/>
			<path class="st0" d="M55.9,179.3h4.9v29.5H76v4.4H55.9V179.3z"/>
			<path class="st0" d="M80.3,179.3h19.3v4.3H85.2V194h13.9v4.4H85.2V209H100v4.3H80.3V179.3z"/>
			<path class="st0" d="M132.2,179.3h4.6v34h-4.2l-22.7-26.2v26.1h-4.6v-34h3.9l22.9,26.4L132.2,179.3L132.2,179.3z"/>
		</g>
		<g class="st1">
			<path class="st0" d="M163.3,179.3h6.1l-14.7,16.1l18.4,17.8h-6.6L149,196.5v16.8h-4.9v-34h4.9v15.5L163.3,179.3z"/>
		</g>
		<g class="st1">
			<path class="st0" d="M231.2,179.3h4.8l-14.4,34.1h-1.1L206,179.3h4.9l10.2,23.8L231.2,179.3z"/>
			<path class="st0" d="M239.8,179.3h4.9v34h-4.9V179.3z"/>
			<path class="st0" d="M281.5,205.4v5.3c-3.6,1.9-7.7,2.9-12.3,2.9c-3.8,0-7-0.8-9.7-2.3s-4.7-3.6-6.3-6.3
				c-1.5-2.7-2.3-5.6-2.3-8.7c0-4.9,1.8-9.1,5.3-12.5s7.9-5.1,13-5.1c3.6,0,7.5,0.9,11.9,2.8v5.2c-4-2.3-7.9-3.4-11.6-3.4
				c-3.9,0-7.1,1.2-9.7,3.7c-2.6,2.5-3.9,5.5-3.9,9.2c0,3.7,1.3,6.8,3.8,9.2c2.5,2.4,5.8,3.6,9.7,3.6
				C273.6,209.2,277.6,207.9,281.5,205.4z M274.1,169.5l-5.5,7.3h-2.7l3.3-7.3H274.1z"/>
		</g>
		<path class="st0" d="M201.3,190.2c-1.8-0.6-3.7-0.4-5.4,0.3l-0.5,0.2c0.6-0.8,1.1-1.5,1.6-2.2c0.7-1,1.3-2.2,1.7-3.4
			c0.3-0.9,0.3-1.8,0.1-2.7c-0.4-1.1-1.2-1.9-2.2-2.3c-0.5-0.2-1.1-0.4-1.7-0.5h-1c-0.5,0.1-0.9,0.2-1.3,0.4
			c-1.9,0.8-3.3,2.5-3.8,4.4c-0.4,1.3-0.5,2.7-0.4,4c0,0.1,0,0.2,0,0.4l-0.2-0.4c-0.8-1.7-2-3.3-3.3-4.6c-0.6-0.6-1.3-1.1-2.1-1.4
			c-1.4-0.6-3.1-0.2-4.1,0.9c-1.6,1.6-2,4-1.1,6c0.7,1.8,2,3.3,3.8,4.1l0.7,0.4c-0.7,0.1-1.4,0.1-2,0.3c-1.7,0.3-3.3,1.3-4.4,2.7
			c-1.7,2.2-1.6,5.3,0.3,7.3c0.8,0.8,2,1.1,3.1,0.9c1.4-0.3,2.7-1,3.8-1.8c0.3-0.3,0.6-0.5,1-0.7c0,0.1-0.1,0.3-0.2,0.4
			c-0.7,1.3-1.2,2.7-1.6,4.1c-0.3,1.1-0.3,2.3-0.1,3.4c0.3,1.1,1.1,2,2.1,2.4c0.6,0.2,1.3,0.4,1.9,0.5h0.7c0.6-0.1,1.1-0.3,1.6-0.6
			c0.8-0.7,1.4-1.6,1.8-2.6c0.5-1.4,0.7-2.9,0.8-4.3v-0.2c0,0,0,0,0.1-0.1c0.1,0.2,0.1,0.3,0.2,0.5c0.5,1.5,1.2,2.8,2.2,4
			c0.6,0.7,1.4,1.2,2.3,1.3c0.7,0.1,1.3-0.1,1.9-0.4c1-0.5,1.8-1.3,2.4-2.3c0.7-1.2,0.8-2.6,0.3-3.8c-0.6-1.4-1.5-2.7-2.7-3.8
			l-1.1-1c0.6,0.1,1.1,0.2,1.6,0.3c1.5,0.3,3.1,0.2,4.5-0.3c1.4-0.6,2.4-1.8,2.6-3.3C205.5,193.8,203.9,191.1,201.3,190.2z
			 M191.4,182.3c0.3-0.3,0.6-0.5,1-0.6c1.7-0.7,3.6,0.1,4.4,1.8c0.3,0.6,0.3,1.3,0.2,2c-0.2,1.2-0.7,2.4-1.5,3.3
			c-1.4,1.6-2.9,3.2-4.5,4.6c-0.1-0.1-0.1-0.1-0.2-0.2c0.4-0.6,0.8-1.1,1.1-1.7c0.4-0.6,0.6-1.4,0.6-2.1c0-0.1-0.1-0.3-0.1-0.4
			c-0.2-0.1-0.3,0.1-0.3,0.3c-0.3,0.7-0.5,1.4-0.8,2.1c-0.1,0.3-0.3,0.6-0.6,0.8c0-0.3,0-0.5,0-0.8c0.1-0.7,0.2-1.4,0.3-2.1
			c0-0.1,0-0.1,0-0.2s-0.1-0.2-0.1-0.3s-0.2,0.1-0.3,0.1c-0.3,0.5-0.5,1.2-0.5,1.8s0.1,1.2,0.2,1.7c0,0.2,0,0.4-0.3,0.4
			c-0.1-0.4-0.1-0.8-0.2-1.1c-0.2-1.5-0.4-2.9-0.4-4.4C189.4,185.5,190.1,183.7,191.4,182.3z M180.8,191.8c-1.1-0.8-1.8-2.1-1.8-3.5
			c-0.1-1.1,0.3-2.1,1.1-2.8c0.6-0.6,1.5-0.9,2.4-0.8c0.5,0,0.9,0.1,1.4,0.1c0.3,0,0.5,0.1,0.7,0.3c2.1,2,3.6,4.7,4.1,7.6l-0.7,0.2
			l-0.3-0.6c-0.3-0.8-0.8-1.5-1.5-2.1c-0.2-0.1-0.3-0.3-0.5-0.1s0,0.4,0.1,0.5c0.5,0.8,1,1.6,1.5,2.4c0.1,0.1,0,0.2,0,0.3
			s-0.2,0-0.3-0.1c-0.7-0.5-1.3-1.1-2-1.6l-0.3-0.3c-0.1-0.1-0.3-0.1-0.4-0.1c0,0,0,0-0.1,0.1s-0.1,0.3,0,0.4
			c0.5,0.8,1.3,1.5,2.2,1.9l0.3,0.1l0.1,0.1l-0.3,0.5l-2.4-0.8C183,193.2,181.9,192.6,180.8,191.8L180.8,191.8z M181.2,202.7
			c-0.1,0-0.3,0-0.4,0c-0.3,0-0.6-0.1-0.9-0.1c-0.7,0.1-1.3-0.1-1.9-0.4c-1.2-0.8-1.8-2.2-1.4-3.6c0.2-0.6,0.5-1.2,0.9-1.7
			c0.6-0.8,1.6-1.3,2.6-1.5c1.5-0.3,3.1-0.4,4.7-0.1c-0.3,0.3-0.6,0.5-0.9,0.8c-0.1,0.2-0.2,0.3-0.3,0.5c-0.1,0.1-0.1,0.2,0,0.4
			c0.1,0.1,0.2,0.1,0.3,0c0.2-0.1,0.4-0.3,0.6-0.4c0.6-0.5,1.3-0.8,2-0.8c0.2,0.3,0.1,0.7-0.1,0.9c-0.4,0.3-0.8,0.7-1.2,1
			c-0.2,0.1-0.5,0.3-0.7,0.4c-0.1,0.1-0.1,0.3-0.2,0.5c0.1,0.1,0.3,0.2,0.4,0.1c0.7-0.2,1.4-0.6,1.8-1.3l0.4-0.5
			c0.1,0.1,0.2,0.2,0.3,0.3c-0.6,0.7-1.2,1.4-1.8,2.1C184.1,200.6,182.7,201.8,181.2,202.7L181.2,202.7z M189.3,207.7
			c-0.2,0.7-0.5,1.4-0.7,2.1c0,0.1-0.1,0.2-0.2,0.2c-0.8,0.5-1.7,0.7-2.6,0.6c-1.3-0.2-2.3-1.2-2.6-2.4c-0.2-0.8-0.2-1.8,0.1-2.6
			c0.9-2.4,2.2-4.7,3.8-6.8l0.1-0.1c0,0,0,0,0.1,0c-0.1,0.6-0.2,1.1-0.3,1.7c0,0.1,0.1,0.2,0.1,0.4c0.1-0.1,0.2-0.2,0.2-0.3
			c0.3-0.8,0.6-1.7,0.8-2.5l0.4,0.1c-0.1,0.9-0.3,1.9-0.4,2.8c0,0.1,0,0.1,0,0.2c0,0.1,0.1,0.2,0.1,0.3c0.1-0.1,0.2-0.1,0.2-0.2
			c0.2-0.6,0.4-1.3,0.5-1.9c0-0.1,0.1-0.2,0.1-0.3c0.3,1.7,0.5,3.4,0.5,5.2C189.7,205.2,189.6,206.5,189.3,207.7L189.3,207.7z
			 M189,197.1c-1,0.1-1.9-0.7-1.9-1.7c-0.1-1,0.7-1.9,1.7-1.9c1-0.1,1.9,0.7,1.9,1.7v0.1C190.8,196.2,190,197.1,189,197.1
			C189.1,197.1,189.1,197.1,189,197.1L189,197.1z M197,201.9c0.4,0.5,0.8,1,1.2,1.6c0,0.1,0.1,0.2,0.1,0.3c0,0.2,0,0.4,0,0.6
			c0.6,1.4-0.1,3-1.5,3.6c-0.2,0.1-0.4,0.1-0.7,0.2c-1,0.1-2.1,0-3-0.5c-0.1-0.1-0.2-0.2-0.3-0.4c-0.9-1.4-1.5-3-1.8-4.7
			c-0.2-0.8-0.3-1.7-0.5-2.5h0.1c0.1,0.2,0.3,0.5,0.5,0.7c0.1,0.1,0.2,0.1,0.3,0.1c0-0.1,0.1-0.3,0.1-0.4c-0.2-0.6-0.5-1.3-0.8-1.9
			c-0.1-0.3-0.2-0.7-0.2-1h0.1c0.1,0.2,0.2,0.3,0.3,0.5c0.5,0.7,1,1.4,1.5,2.1l0.1,0.1c0,0,0.2,0,0.4,0s0-0.3,0-0.4
			c-0.4-0.6-0.9-1.2-1.3-1.8c-0.2-0.3-0.4-0.6-0.7-0.9c0.1,0,0.3-0.1,0.3,0C193.3,198.7,195.3,200.3,197,201.9L197,201.9z
			 M201.9,197.2c-0.4,0.4-0.8,0.8-1.3,1.1c-0.2,0.1-0.3,0.2-0.4,0.4c-0.1,0.1-0.2,0.1-0.3,0.1c-2.5,0.3-4.9-0.2-7-1.6
			c-0.4-0.3-0.8-0.6-1.1-0.8c-0.1-0.1-0.2-0.2-0.2-0.3c0.7,0.2,1.3,0.4,1.9,0.5c0.8,0.1,1.5,0.1,2.3-0.2c0.1,0,0.3-0.1,0.3-0.3
			s-0.2-0.2-0.4-0.2c-0.8,0.1-1.5,0.1-2.3,0.1c-0.5-0.1-1.1-0.2-1.6-0.4c0.7-0.3,1.4-0.5,2.2-0.5h0.4c0.2,0,0.4-0.1,0.4-0.3v-0.1
			c0-0.2-0.1-0.4-0.3-0.4h-0.1c-0.7,0.1-1.5,0.3-2.2,0.4c-0.2,0.1-0.4,0.1-0.6,0.2c0.1-0.2,0.1-0.3,0.1-0.4c1.2-0.8,2.3-1.6,3.6-2.3
			c1.2-0.7,2.6-1.1,4-1c0.7,0,1.3,0.2,1.9,0.5c0.8,0.6,1.4,1.5,1.6,2.5C203,195.3,202.7,196.4,201.9,197.2L201.9,197.2z"/>
	</g>
</g>
</svg>
